<?xml version="1.0" encoding="utf-8"?>
<!-- Generator: Adobe Illustrator 23.1.0, SVG Export Plug-In . SVG Version: 6.00 Build 0)  -->
<svg version="1.1" id="Layer_1" xmlns="http://www.w3.org/2000/svg" xmlns:xlink="http://www.w3.org/1999/xlink" x="0px" y="0px"
	 viewBox="0 0 92 96" style="enable-background:new 0 0 92 96;" xml:space="preserve">
<style type="text/css">
	.st0{fill:none;stroke:#9219DE;stroke-width:4;}
</style>
<title>thin-0658_cup_place_winner_award_prize_achievement</title>
<desc>Created with Sketch.</desc>
<polygon id="Shape" class="st0" points="61.6,93.9 30.7,93.9 33.2,84.7 59,84.7 "/>
<path id="XMLID_6_" class="st0" d="M20.4,46.7c-7,1.9-14.7-4-17.1-13c-2.4-9.1,1.3-17.9,8.4-19.8c1.9-0.5,3.9-0.4,5.8,0.1"/>
<path id="XMLID_5_" class="st0" d="M71.9,46.7c7,1.9,14.7-4,17.1-13c2.4-9.1-1.3-17.9-8.4-19.8c-1.9-0.5-3.9-0.4-5.8,0.1"/>
<path id="XMLID_4_" class="st0" d="M71.7,2H20.5c-1.7,0-3,1.3-3,3V33c0,17.1,12.8,31,28.6,31c15.8,0,28.6-13.9,28.6-31V5.1
	C74.7,3.4,73.4,2,71.7,2L71.7,2z"/>
<path id="XMLID_3_" class="st0" d="M50.2,24.9c-4.7-13.3-3.5-12.9-8.1,0c-14.2,0.3-13.5-0.6-2.5,7.6c-4.1,13.4-4.8,12.5,6.5,4.7
	c11.7,8,10.6,8.4,6.5-4.7C64,24.1,64,25.2,50.2,24.9L50.2,24.9z"/>
<path id="XMLID_2_" class="st0" d="M42.2,84.8V71"/>
<path id="XMLID_1_" class="st0" d="M50,84.8V71"/>
</svg>
